<?xml version="1.0" encoding="UTF-8"?>
<!DOCTYPE svg PUBLIC "-//W3C//DTD SVG 1.1//EN" "http://www.w3.org/Graphics/SVG/1.1/DTD/svg11.dtd">
<!-- Creator: CorelDRAW 2019 (64 Bit) -->
<svg xmlns="http://www.w3.org/2000/svg" xml:space="preserve" width="3.7252mm" height="2.8058mm" version="1.1" style="shape-rendering:geometricPrecision; text-rendering:geometricPrecision; image-rendering:optimizeQuality; fill-rule:evenodd; clip-rule:evenodd"
viewBox="0 0 101.52 76.46"
 xmlns:xlink="http://www.w3.org/1999/xlink"
 xmlns:xodm="http://www.corel.com/coreldraw/odm/2003">
 <defs>
  <style type="text/css">
   <![CDATA[
    .fil0 {fill:url(#id0)}
   ]]>
  </style>
  <linearGradient id="id0" gradientUnits="userSpaceOnUse" x1="41.87" y1="68.16" x2="41.87" y2="28.16">
   <stop offset="0" style="stop-opacity:1; stop-color:#FFAC0B"/>
   <stop offset="1" style="stop-opacity:1; stop-color:#FF963F"/>
  </linearGradient>
 </defs>
 <g id="Camada_x0020_1">
  <metadata id="CorelCorpID_0Corel-Layer"/>
  <path class="fil0" d="M95.84 45.62c-0.56,-3.97 -1.21,-7.96 -1.81,-11.93 -1.19,-7.92 -2.4,-15.83 -3.59,-23.75 -0.36,-2.33 -0.69,-3.74 -3.04,-4.55 -1.32,-0.46 -3.01,-0.85 -4.4,-1.2 -9.1,-2.33 -17.17,-3.56 -26.57,-4.02 -8.41,-0.4 -17.49,-0.08 -25.83,1.1 -4.79,0.68 -9.28,1.52 -13.96,2.8 -1.26,0.35 -2.7,0.68 -3.92,1.08 -1.9,0.66 -2.73,1.66 -3.08,3.62 -1.54,8.73 -2.89,17.52 -4.47,26.25 -0.19,1.03 -0.1,1.47 -0.58,2.47 -0.58,1.19 -1.01,2.55 -1.47,3.79 -0.98,2.63 -1.95,5.22 -2.86,7.88 -0.67,1.96 -0.05,3.66 1.7,4.76l0.02 0.01c-0.46,2.75 -0.98,5.54 -1.36,8.3 -0.48,3.66 1.4,4.41 4.37,5.69 1.88,0.8 3.77,1.58 5.69,2.26 19.91,6.94 43.33,8.01 63.95,3.82 5.8,-1.18 11.42,-2.81 16.93,-5.01 1.64,-0.65 4.76,-1.78 5.88,-3.02 1.16,-1.34 0.99,-2.9 1.12,-3.04 0.26,-0.29 1.6,-0.4 2.46,-1.79 0.75,-1.21 0.58,-2.62 0.03,-3.87 -0.48,-1.04 -1.34,-2.35 -1.94,-3.38 -0.81,-1.4 -2.38,-3.84 -2.79,-5.28 -0.26,-0.9 -0.34,-2.05 -0.47,-3zm-84.05 -3.93c0.01,1.53 -0.08,3.15 -0.03,4.65 0.04,1.15 0.33,2.12 1.16,2.95 0.82,0.82 2.21,1.18 3.34,0.96 1.96,-0.43 2.95,-1.73 3.05,-3.7 0.07,-1.36 -0.04,-2.81 -0.01,-4.21 0.16,-5.82 1.14,-11.88 1.87,-17.67 0.08,-0.65 0.67,-5.29 0.76,-5.41 0.71,-0.48 6.24,-1.43 8.17,-1.5 0.25,1.54 0.1,8.97 0.08,10.29 -0.02,2.07 -0.11,4.09 1.7,5.5 1.1,0.87 2.88,1 4.13,0.37 0.21,-0.11 0.28,-0.22 0.54,-0.28 0.08,1.03 0.17,2.06 0.25,3.09 0.33,4.12 0.62,8.31 1.05,12.41 0.17,1.64 0.39,3.26 0.72,4.88 0.52,2.51 2.14,4.73 5,4.22 3.28,-0.58 3.82,-4.25 4.27,-6.95 0.44,-2.63 0.77,-5.46 1.09,-8.11 0.49,-4.06 0.98,-8.2 1.61,-12.23 0.23,-1.47 0.49,-2.93 0.8,-4.38 0.67,-3.01 2.2,-7.04 4.61,-9.06 1.17,-0.98 2.71,-1.86 4.19,-2.27 1.49,-0.39 3,-0.54 4.45,0.02 0.42,0.16 0.42,0.28 0.59,0.71 0.28,0.75 0.68,2.31 0.82,3.07 0.29,1.49 0.55,2.97 0.76,4.5 0.19,1.34 0.37,3.27 0.84,4.39 1.28,3.05 4.87,3.23 6.58,1.14 1.02,-1.25 1,-2.32 0.87,-4.29 -0.14,-1.81 -0.37,-3.65 -0.52,-5.49 -0.05,-0.6 -0.36,-3.81 -0.02,-4.21 0.43,-0.52 3.72,-0.79 4.49,-0.81 0.22,-0.01 0.89,-0.05 1.52,-0.04 0.05,0.42 0.31,2.99 0.36,3.46 0.45,3.92 0.86,7.88 1.35,11.8 0.28,2.26 0.55,4.77 0.98,6.99 1.17,6.06 4.2,5.4 4.53,6.21 0.14,0.35 0.66,4.18 0.77,4.91 0.64,4.22 1.28,8.44 1.93,12.66 0.05,0.35 0.11,0.57 0.2,0.93 -1.54,0.66 -2.95,1.22 -4.56,1.79 -2.86,1.02 -5.5,1.81 -8.44,2.55 -8.77,2.19 -17.83,3.29 -26.87,3.38 -2.86,0.03 -5.94,-0.06 -8.79,-0.25 -8.29,-0.54 -17.16,-1.9 -25.09,-4.41 -2.72,-0.86 -5.93,-2.15 -8.43,-3.12 0,-0.01 0.19,-1.01 0.19,-1.05 0.27,-1.66 0.57,-3.32 0.84,-4.99 0.39,-2.39 0.81,-4.79 1.2,-7.18 0.1,-0.59 0.98,-6.03 1.11,-6.21z"/>
 </g>
</svg>
